<mxfile host="app.diagrams.net" modified="2023-01-16T14:38:48.130Z" agent="5.0 (X11; Linux x86_64) AppleWebKit/537.36 (KHTML, like Gecko) Chrome/108.0.0.0 Safari/537.36" etag="ICX81wkLesvfGG4QtGsr" version="20.8.5" type="github">
  <diagram id="C5RBs43oDa-KdzZeNtuy" name="Page-1">
    <mxGraphModel dx="1432" dy="1985" grid="1" gridSize="10" guides="1" tooltips="1" connect="1" arrows="1" fold="1" page="1" pageScale="1" pageWidth="827" pageHeight="1169" math="0" shadow="0">
      <root>
        <mxCell id="WIyWlLk6GJQsqaUBKTNV-0" />
        <mxCell id="WIyWlLk6GJQsqaUBKTNV-1" parent="WIyWlLk6GJQsqaUBKTNV-0" />
        <mxCell id="ukY6zEBsBftYOYXzkqwa-11" value="" style="group;glass=0;" parent="WIyWlLk6GJQsqaUBKTNV-1" vertex="1" connectable="0">
          <mxGeometry width="140" height="190" as="geometry" />
        </mxCell>
        <mxCell id="ukY6zEBsBftYOYXzkqwa-5" value="Player" style="rounded=0;whiteSpace=wrap;html=1;align=center;fillColor=#dae8fc;strokeColor=#6c8ebf;" parent="ukY6zEBsBftYOYXzkqwa-11" vertex="1">
          <mxGeometry width="140" height="20" as="geometry" />
        </mxCell>
        <mxCell id="ukY6zEBsBftYOYXzkqwa-7" value="HP&lt;br&gt;ATK&lt;br&gt;DEF&lt;br&gt;Items&lt;br&gt;Sprite&lt;br&gt;Position" style="rounded=0;whiteSpace=wrap;html=1;fillColor=#dae8fc;strokeColor=#6c8ebf;" parent="ukY6zEBsBftYOYXzkqwa-11" vertex="1">
          <mxGeometry y="20" width="140" height="90" as="geometry" />
        </mxCell>
        <mxCell id="ukY6zEBsBftYOYXzkqwa-9" value="Move(&lt;br&gt;left,&lt;br&gt;right,&lt;br&gt;up,&lt;br&gt;down)" style="rounded=0;whiteSpace=wrap;html=1;fillColor=#dae8fc;strokeColor=#6c8ebf;" parent="ukY6zEBsBftYOYXzkqwa-11" vertex="1">
          <mxGeometry y="110" width="140" height="80" as="geometry" />
        </mxCell>
        <mxCell id="ukY6zEBsBftYOYXzkqwa-19" value="" style="edgeStyle=orthogonalEdgeStyle;rounded=0;orthogonalLoop=1;jettySize=auto;html=1;" parent="WIyWlLk6GJQsqaUBKTNV-1" source="ukY6zEBsBftYOYXzkqwa-16" target="ukY6zEBsBftYOYXzkqwa-18" edge="1">
          <mxGeometry relative="1" as="geometry" />
        </mxCell>
        <mxCell id="ukY6zEBsBftYOYXzkqwa-21" value="" style="edgeStyle=orthogonalEdgeStyle;rounded=0;orthogonalLoop=1;jettySize=auto;html=1;" parent="WIyWlLk6GJQsqaUBKTNV-1" source="ukY6zEBsBftYOYXzkqwa-16" target="ukY6zEBsBftYOYXzkqwa-20" edge="1">
          <mxGeometry relative="1" as="geometry" />
        </mxCell>
        <mxCell id="ukY6zEBsBftYOYXzkqwa-28" value="" style="edgeStyle=orthogonalEdgeStyle;rounded=0;orthogonalLoop=1;jettySize=auto;html=1;" parent="WIyWlLk6GJQsqaUBKTNV-1" source="ukY6zEBsBftYOYXzkqwa-16" target="ukY6zEBsBftYOYXzkqwa-27" edge="1">
          <mxGeometry relative="1" as="geometry" />
        </mxCell>
        <mxCell id="ukY6zEBsBftYOYXzkqwa-16" value="find()" style="rhombus;whiteSpace=wrap;html=1;rounded=0;fillColor=#e1d5e7;strokeColor=#9673a6;" parent="WIyWlLk6GJQsqaUBKTNV-1" vertex="1">
          <mxGeometry x="250" y="115" width="80" height="80" as="geometry" />
        </mxCell>
        <mxCell id="ukY6zEBsBftYOYXzkqwa-17" value="" style="edgeStyle=orthogonalEdgeStyle;rounded=0;orthogonalLoop=1;jettySize=auto;html=1;exitX=1;exitY=0.563;exitDx=0;exitDy=0;exitPerimeter=0;" parent="WIyWlLk6GJQsqaUBKTNV-1" source="ukY6zEBsBftYOYXzkqwa-9" target="ukY6zEBsBftYOYXzkqwa-16" edge="1">
          <mxGeometry relative="1" as="geometry" />
        </mxCell>
        <mxCell id="ukY6zEBsBftYOYXzkqwa-95" value="" style="edgeStyle=orthogonalEdgeStyle;rounded=0;orthogonalLoop=1;jettySize=auto;html=1;" parent="WIyWlLk6GJQsqaUBKTNV-1" source="ukY6zEBsBftYOYXzkqwa-18" target="ukY6zEBsBftYOYXzkqwa-94" edge="1">
          <mxGeometry relative="1" as="geometry" />
        </mxCell>
        <mxCell id="ukY6zEBsBftYOYXzkqwa-38" value="25%" style="text;html=1;align=center;verticalAlign=middle;resizable=0;points=[];autosize=1;strokeColor=none;fillColor=none;" parent="WIyWlLk6GJQsqaUBKTNV-1" vertex="1">
          <mxGeometry x="330" y="130" width="50" height="30" as="geometry" />
        </mxCell>
        <mxCell id="ukY6zEBsBftYOYXzkqwa-39" value="25%" style="text;html=1;align=center;verticalAlign=middle;resizable=0;points=[];autosize=1;strokeColor=none;fillColor=none;" parent="WIyWlLk6GJQsqaUBKTNV-1" vertex="1">
          <mxGeometry x="290" y="210" width="50" height="30" as="geometry" />
        </mxCell>
        <mxCell id="ukY6zEBsBftYOYXzkqwa-40" value="50%" style="text;html=1;align=center;verticalAlign=middle;resizable=0;points=[];autosize=1;strokeColor=none;fillColor=none;" parent="WIyWlLk6GJQsqaUBKTNV-1" vertex="1">
          <mxGeometry x="290" y="60" width="50" height="30" as="geometry" />
        </mxCell>
        <mxCell id="ukY6zEBsBftYOYXzkqwa-42" value="" style="group;fillColor=#f8cecc;strokeColor=#b85450;" parent="WIyWlLk6GJQsqaUBKTNV-1" vertex="1" connectable="0">
          <mxGeometry x="390" y="125" width="120" height="180" as="geometry" />
        </mxCell>
        <mxCell id="ukY6zEBsBftYOYXzkqwa-20" value="Enemy" style="whiteSpace=wrap;html=1;rounded=0;fillColor=#f8cecc;strokeColor=#b85450;" parent="ukY6zEBsBftYOYXzkqwa-42" vertex="1">
          <mxGeometry width="120" height="60" as="geometry" />
        </mxCell>
        <mxCell id="ukY6zEBsBftYOYXzkqwa-26" value="HP&lt;br&gt;ATK&lt;br&gt;DEF&lt;br&gt;Sprite" style="rounded=0;whiteSpace=wrap;html=1;fillColor=#f8cecc;strokeColor=#b85450;" parent="ukY6zEBsBftYOYXzkqwa-42" vertex="1">
          <mxGeometry y="60" width="120" height="60" as="geometry" />
        </mxCell>
        <mxCell id="ukY6zEBsBftYOYXzkqwa-31" value="Fight(Player)" style="rounded=0;whiteSpace=wrap;html=1;fillColor=#f8cecc;strokeColor=#b85450;" parent="ukY6zEBsBftYOYXzkqwa-42" vertex="1">
          <mxGeometry y="120" width="120" height="60" as="geometry" />
        </mxCell>
        <mxCell id="ukY6zEBsBftYOYXzkqwa-43" value="" style="group" parent="WIyWlLk6GJQsqaUBKTNV-1" vertex="1" connectable="0">
          <mxGeometry x="230" y="285" width="120" height="180" as="geometry" />
        </mxCell>
        <mxCell id="ukY6zEBsBftYOYXzkqwa-27" value="Item" style="whiteSpace=wrap;html=1;rounded=0;fillColor=#d5e8d4;strokeColor=#82b366;" parent="ukY6zEBsBftYOYXzkqwa-43" vertex="1">
          <mxGeometry width="120" height="60" as="geometry" />
        </mxCell>
        <mxCell id="ukY6zEBsBftYOYXzkqwa-29" value="HP&lt;br&gt;ATK&lt;br&gt;DEF&lt;br&gt;Sprite" style="rounded=0;whiteSpace=wrap;html=1;fillColor=#d5e8d4;strokeColor=#82b366;" parent="ukY6zEBsBftYOYXzkqwa-43" vertex="1">
          <mxGeometry y="60" width="120" height="60" as="geometry" />
        </mxCell>
        <mxCell id="ukY6zEBsBftYOYXzkqwa-30" value="Transfer()" style="rounded=0;whiteSpace=wrap;html=1;fillColor=#d5e8d4;strokeColor=#82b366;" parent="ukY6zEBsBftYOYXzkqwa-43" vertex="1">
          <mxGeometry y="120" width="120" height="60" as="geometry" />
        </mxCell>
        <mxCell id="ukY6zEBsBftYOYXzkqwa-104" style="edgeStyle=orthogonalEdgeStyle;rounded=0;orthogonalLoop=1;jettySize=auto;html=1;entryX=1;entryY=0.5;entryDx=0;entryDy=0;" parent="WIyWlLk6GJQsqaUBKTNV-1" source="ukY6zEBsBftYOYXzkqwa-54" target="ukY6zEBsBftYOYXzkqwa-94" edge="1">
          <mxGeometry relative="1" as="geometry">
            <mxPoint x="920" y="-180" as="targetPoint" />
            <Array as="points">
              <mxPoint x="495" y="500" />
              <mxPoint x="920" y="500" />
              <mxPoint x="920" y="-115" />
            </Array>
          </mxGeometry>
        </mxCell>
        <mxCell id="ukY6zEBsBftYOYXzkqwa-54" value="Transfer stats to player&#39;s stats" style="ellipse;whiteSpace=wrap;html=1;fillColor=#d5e8d4;strokeColor=#82b366;rounded=0;" parent="WIyWlLk6GJQsqaUBKTNV-1" vertex="1">
          <mxGeometry x="450" y="387.5" width="90" height="95" as="geometry" />
        </mxCell>
        <mxCell id="ukY6zEBsBftYOYXzkqwa-55" value="" style="edgeStyle=orthogonalEdgeStyle;rounded=0;orthogonalLoop=1;jettySize=auto;html=1;" parent="WIyWlLk6GJQsqaUBKTNV-1" source="ukY6zEBsBftYOYXzkqwa-30" target="ukY6zEBsBftYOYXzkqwa-54" edge="1">
          <mxGeometry relative="1" as="geometry" />
        </mxCell>
        <mxCell id="ukY6zEBsBftYOYXzkqwa-62" value="" style="edgeStyle=orthogonalEdgeStyle;rounded=0;orthogonalLoop=1;jettySize=auto;html=1;" parent="WIyWlLk6GJQsqaUBKTNV-1" source="ukY6zEBsBftYOYXzkqwa-59" target="ukY6zEBsBftYOYXzkqwa-61" edge="1">
          <mxGeometry relative="1" as="geometry" />
        </mxCell>
        <mxCell id="ukY6zEBsBftYOYXzkqwa-64" value="" style="edgeStyle=orthogonalEdgeStyle;rounded=0;orthogonalLoop=1;jettySize=auto;html=1;" parent="WIyWlLk6GJQsqaUBKTNV-1" source="ukY6zEBsBftYOYXzkqwa-59" target="ukY6zEBsBftYOYXzkqwa-63" edge="1">
          <mxGeometry relative="1" as="geometry" />
        </mxCell>
        <mxCell id="ukY6zEBsBftYOYXzkqwa-59" value="Lose/Win" style="rhombus;whiteSpace=wrap;html=1;fillColor=#f8cecc;strokeColor=#b85450;rounded=0;" parent="WIyWlLk6GJQsqaUBKTNV-1" vertex="1">
          <mxGeometry x="610" y="235" width="80" height="80" as="geometry" />
        </mxCell>
        <mxCell id="ukY6zEBsBftYOYXzkqwa-60" value="" style="edgeStyle=orthogonalEdgeStyle;rounded=0;orthogonalLoop=1;jettySize=auto;html=1;" parent="WIyWlLk6GJQsqaUBKTNV-1" source="ukY6zEBsBftYOYXzkqwa-31" target="ukY6zEBsBftYOYXzkqwa-59" edge="1">
          <mxGeometry relative="1" as="geometry" />
        </mxCell>
        <mxCell id="ukY6zEBsBftYOYXzkqwa-91" value="" style="edgeStyle=orthogonalEdgeStyle;rounded=0;orthogonalLoop=1;jettySize=auto;html=1;entryX=1;entryY=0.5;entryDx=0;entryDy=0;" parent="WIyWlLk6GJQsqaUBKTNV-1" source="ukY6zEBsBftYOYXzkqwa-61" target="ukY6zEBsBftYOYXzkqwa-94" edge="1">
          <mxGeometry relative="1" as="geometry">
            <mxPoint x="920" y="-160" as="targetPoint" />
            <Array as="points">
              <mxPoint x="920" y="435" />
              <mxPoint x="920" y="-115" />
            </Array>
          </mxGeometry>
        </mxCell>
        <mxCell id="ukY6zEBsBftYOYXzkqwa-61" value="Win()" style="ellipse;whiteSpace=wrap;html=1;fillColor=#f8cecc;strokeColor=#b85450;rounded=0;" parent="WIyWlLk6GJQsqaUBKTNV-1" vertex="1">
          <mxGeometry x="610" y="395" width="80" height="80" as="geometry" />
        </mxCell>
        <mxCell id="ukY6zEBsBftYOYXzkqwa-63" value="Lose()" style="ellipse;whiteSpace=wrap;html=1;fillColor=#f8cecc;strokeColor=#b85450;rounded=0;" parent="WIyWlLk6GJQsqaUBKTNV-1" vertex="1">
          <mxGeometry x="770" y="235" width="80" height="80" as="geometry" />
        </mxCell>
        <mxCell id="ukY6zEBsBftYOYXzkqwa-76" value="" style="edgeStyle=orthogonalEdgeStyle;rounded=0;orthogonalLoop=1;jettySize=auto;html=1;" parent="WIyWlLk6GJQsqaUBKTNV-1" source="ukY6zEBsBftYOYXzkqwa-71" target="ukY6zEBsBftYOYXzkqwa-75" edge="1">
          <mxGeometry relative="1" as="geometry">
            <Array as="points">
              <mxPoint x="160" y="-220" />
              <mxPoint x="160" y="-220" />
            </Array>
          </mxGeometry>
        </mxCell>
        <mxCell id="ukY6zEBsBftYOYXzkqwa-78" style="edgeStyle=orthogonalEdgeStyle;rounded=0;orthogonalLoop=1;jettySize=auto;html=1;" parent="WIyWlLk6GJQsqaUBKTNV-1" source="ukY6zEBsBftYOYXzkqwa-75" edge="1">
          <mxGeometry relative="1" as="geometry">
            <mxPoint x="80" as="targetPoint" />
            <Array as="points">
              <mxPoint x="80" y="-130" />
            </Array>
          </mxGeometry>
        </mxCell>
        <mxCell id="ukY6zEBsBftYOYXzkqwa-75" value="Transfrom player&#39;s current cell into player object" style="ellipse;whiteSpace=wrap;html=1;fillColor=#e1d5e7;strokeColor=#9673a6;rounded=0;glass=0;" parent="WIyWlLk6GJQsqaUBKTNV-1" vertex="1">
          <mxGeometry x="30" y="-270" width="100" height="100" as="geometry" />
        </mxCell>
        <mxCell id="ukY6zEBsBftYOYXzkqwa-96" value="" style="edgeStyle=orthogonalEdgeStyle;rounded=0;orthogonalLoop=1;jettySize=auto;html=1;" parent="WIyWlLk6GJQsqaUBKTNV-1" source="ukY6zEBsBftYOYXzkqwa-94" target="ukY6zEBsBftYOYXzkqwa-71" edge="1">
          <mxGeometry relative="1" as="geometry" />
        </mxCell>
        <mxCell id="ukY6zEBsBftYOYXzkqwa-94" value="Transform previous player cell into cell object" style="ellipse;whiteSpace=wrap;html=1;fillColor=#fff2cc;strokeColor=#d6b656;rounded=0;" parent="WIyWlLk6GJQsqaUBKTNV-1" vertex="1">
          <mxGeometry x="245" y="-160" width="90" height="90" as="geometry" />
        </mxCell>
        <mxCell id="ukY6zEBsBftYOYXzkqwa-97" value="" style="group" parent="WIyWlLk6GJQsqaUBKTNV-1" vertex="1" connectable="0">
          <mxGeometry x="230" y="-370" width="120" height="180" as="geometry" />
        </mxCell>
        <mxCell id="ukY6zEBsBftYOYXzkqwa-66" value="Cell" style="rounded=0;whiteSpace=wrap;html=1;glass=0;fillColor=#e1d5e7;strokeColor=#9673a6;" parent="ukY6zEBsBftYOYXzkqwa-97" vertex="1">
          <mxGeometry width="120" height="60" as="geometry" />
        </mxCell>
        <mxCell id="ukY6zEBsBftYOYXzkqwa-69" value="Sprite&lt;br&gt;Position" style="rounded=0;whiteSpace=wrap;html=1;glass=0;fillColor=#e1d5e7;strokeColor=#9673a6;" parent="ukY6zEBsBftYOYXzkqwa-97" vertex="1">
          <mxGeometry y="60" width="120" height="60" as="geometry" />
        </mxCell>
        <mxCell id="ukY6zEBsBftYOYXzkqwa-71" value="Transform(&lt;br&gt;previous,&lt;br&gt;current)" style="rounded=0;whiteSpace=wrap;html=1;glass=0;fillColor=#e1d5e7;strokeColor=#9673a6;" parent="ukY6zEBsBftYOYXzkqwa-97" vertex="1">
          <mxGeometry y="120" width="120" height="60" as="geometry" />
        </mxCell>
        <mxCell id="ukY6zEBsBftYOYXzkqwa-109" value="" style="group" parent="WIyWlLk6GJQsqaUBKTNV-1" vertex="1" connectable="0">
          <mxGeometry x="230" y="-700" width="120" height="780" as="geometry" />
        </mxCell>
        <mxCell id="ukY6zEBsBftYOYXzkqwa-105" value="Row&lt;br&gt;Column" style="rounded=0;whiteSpace=wrap;html=1;glass=0;fillColor=#D8F805;" parent="ukY6zEBsBftYOYXzkqwa-109" vertex="1">
          <mxGeometry y="60" width="120" height="60" as="geometry" />
        </mxCell>
        <mxCell id="ukY6zEBsBftYOYXzkqwa-106" value="Grid" style="rounded=0;whiteSpace=wrap;html=1;glass=0;fillColor=#D8F805;" parent="ukY6zEBsBftYOYXzkqwa-109" vertex="1">
          <mxGeometry width="120" height="60" as="geometry" />
        </mxCell>
        <mxCell id="ukY6zEBsBftYOYXzkqwa-107" value="PopulateGrid()" style="rounded=0;whiteSpace=wrap;html=1;glass=0;fillColor=#D8F805;" parent="ukY6zEBsBftYOYXzkqwa-109" vertex="1">
          <mxGeometry y="115" width="120" height="60" as="geometry" />
        </mxCell>
        <mxCell id="ukY6zEBsBftYOYXzkqwa-110" value="Populate grid with cells" style="ellipse;whiteSpace=wrap;html=1;fillColor=#D8F805;rounded=0;glass=0;" parent="ukY6zEBsBftYOYXzkqwa-109" vertex="1">
          <mxGeometry x="20" y="200" width="80" height="80" as="geometry" />
        </mxCell>
        <mxCell id="ukY6zEBsBftYOYXzkqwa-111" value="" style="edgeStyle=orthogonalEdgeStyle;rounded=0;orthogonalLoop=1;jettySize=auto;html=1;" parent="ukY6zEBsBftYOYXzkqwa-109" source="ukY6zEBsBftYOYXzkqwa-107" target="ukY6zEBsBftYOYXzkqwa-110" edge="1">
          <mxGeometry relative="1" as="geometry" />
        </mxCell>
        <mxCell id="ukY6zEBsBftYOYXzkqwa-18" value="Nothing" style="rhombus;whiteSpace=wrap;html=1;rounded=0;direction=south;fillColor=#fff2cc;strokeColor=#d6b656;" parent="ukY6zEBsBftYOYXzkqwa-109" vertex="1">
          <mxGeometry x="15" y="670" width="90" height="85" as="geometry" />
        </mxCell>
        <mxCell id="ukY6zEBsBftYOYXzkqwa-112" style="edgeStyle=orthogonalEdgeStyle;rounded=0;orthogonalLoop=1;jettySize=auto;html=1;entryX=0.5;entryY=0;entryDx=0;entryDy=0;" parent="WIyWlLk6GJQsqaUBKTNV-1" source="ukY6zEBsBftYOYXzkqwa-110" target="ukY6zEBsBftYOYXzkqwa-66" edge="1">
          <mxGeometry relative="1" as="geometry">
            <mxPoint x="290" y="-380" as="targetPoint" />
          </mxGeometry>
        </mxCell>
        <mxCell id="ukY6zEBsBftYOYXzkqwa-130" style="edgeStyle=orthogonalEdgeStyle;rounded=0;orthogonalLoop=1;jettySize=auto;html=1;entryX=0.5;entryY=0;entryDx=0;entryDy=0;" parent="WIyWlLk6GJQsqaUBKTNV-1" source="ukY6zEBsBftYOYXzkqwa-122" target="ukY6zEBsBftYOYXzkqwa-127" edge="1">
          <mxGeometry relative="1" as="geometry" />
        </mxCell>
        <mxCell id="ukY6zEBsBftYOYXzkqwa-122" value="Goal" style="rhombus;whiteSpace=wrap;html=1;rounded=0;direction=south;fillColor=#fff2cc;strokeColor=#d6b656;" parent="WIyWlLk6GJQsqaUBKTNV-1" vertex="1">
          <mxGeometry x="25" y="235" width="90" height="85" as="geometry" />
        </mxCell>
        <mxCell id="ukY6zEBsBftYOYXzkqwa-123" style="edgeStyle=orthogonalEdgeStyle;rounded=0;orthogonalLoop=1;jettySize=auto;html=1;entryX=0;entryY=0.5;entryDx=0;entryDy=0;" parent="WIyWlLk6GJQsqaUBKTNV-1" source="ukY6zEBsBftYOYXzkqwa-9" target="ukY6zEBsBftYOYXzkqwa-122" edge="1">
          <mxGeometry relative="1" as="geometry" />
        </mxCell>
        <mxCell id="ukY6zEBsBftYOYXzkqwa-124" value="" style="edgeStyle=orthogonalEdgeStyle;rounded=0;orthogonalLoop=1;jettySize=auto;html=1;" parent="WIyWlLk6GJQsqaUBKTNV-1" source="ukY6zEBsBftYOYXzkqwa-129" target="ukY6zEBsBftYOYXzkqwa-125" edge="1">
          <mxGeometry relative="1" as="geometry" />
        </mxCell>
        <mxCell id="ukY6zEBsBftYOYXzkqwa-125" value="Player wins the game" style="ellipse;whiteSpace=wrap;html=1;fillColor=#fff2cc;strokeColor=#d6b656;rounded=0;glass=0;" parent="WIyWlLk6GJQsqaUBKTNV-1" vertex="1">
          <mxGeometry x="30" y="630" width="80" height="80" as="geometry" />
        </mxCell>
        <mxCell id="ukY6zEBsBftYOYXzkqwa-126" value="" style="group" parent="WIyWlLk6GJQsqaUBKTNV-1" vertex="1" connectable="0">
          <mxGeometry x="10" y="380" width="120" height="180" as="geometry" />
        </mxCell>
        <mxCell id="ukY6zEBsBftYOYXzkqwa-127" value="Goal" style="whiteSpace=wrap;html=1;rounded=0;fillColor=#fff2cc;strokeColor=#d6b656;" parent="ukY6zEBsBftYOYXzkqwa-126" vertex="1">
          <mxGeometry width="120" height="60" as="geometry" />
        </mxCell>
        <mxCell id="ukY6zEBsBftYOYXzkqwa-128" value="Sprite" style="rounded=0;whiteSpace=wrap;html=1;glass=0;fillColor=#fff2cc;strokeColor=#d6b656;" parent="ukY6zEBsBftYOYXzkqwa-126" vertex="1">
          <mxGeometry y="60" width="120" height="60" as="geometry" />
        </mxCell>
        <mxCell id="ukY6zEBsBftYOYXzkqwa-129" value="Win()" style="rounded=0;whiteSpace=wrap;html=1;glass=0;fillColor=#fff2cc;strokeColor=#d6b656;" parent="ukY6zEBsBftYOYXzkqwa-126" vertex="1">
          <mxGeometry y="120" width="120" height="60" as="geometry" />
        </mxCell>
      </root>
    </mxGraphModel>
  </diagram>
</mxfile>
